<svg width="220" height="360" viewBox="0 0 220 360" fill="none" xmlns="http://www.w3.org/2000/svg">
<defs>
    <linearGradient id="paint0_linear" x1="110" y1="0" x2="110" y2="220" gradientUnits="userSpaceOnUse">
        <stop stop-color="#fdfdfd" stop-opacity="0.95"/>
        <stop offset="1" stop-color="#cde9de" stop-opacity="0.65"/>
    </linearGradient>
    <linearGradient id="paint1_linear" x1="110" y1="140" x2="110" y2="360" gradientUnits="userSpaceOnUse">
        <stop stop-color="#f8fffb" stop-opacity="0.95"/>
        <stop offset="1" stop-color="#b9d4c7" stop-opacity="0.7"/>
    </linearGradient>
    <filter id="shadow" x="20" y="20" width="180" height="320" filterUnits="userSpaceOnUse" color-interpolation-filters="sRGB">
        <feOffset dx="0" dy="18"/>
        <feGaussianBlur stdDeviation="24"/>
        <feColorMatrix type="matrix" values="0 0 0 0 0.09  0 0 0 0 0.2  0 0 0 0 0.16  0 0 0 0.35 0"/>
        <feBlend mode="normal" in2="SourceGraphic" result="effect1_dropShadow"/>
    </filter>
</defs>
<g filter="url(#shadow)">
    <path d="M110 20C141.137 20 166.4 45.2635 166.4 76.4C166.4 107.537 141.137 132.8 110 132.8C78.8633 132.8 53.6 107.537 53.6 76.4C53.6 45.2635 78.8633 20 110 20Z" fill="url(#paint0_linear)"/>
    <path d="M37.5 284.5C43.1667 228.833 71.4 190 110 190C148.6 190 176.833 228.833 182.5 284.5C185.098 310.212 165.418 332 139.555 332H80.4447C54.5816 332 34.9017 310.212 37.5 284.5Z" fill="url(#paint1_linear)"/>
</g>
</svg>
